# xmcd
#
# Track frame offsets:
#	150
#	15195
#	33340
#	47641
#	65034
#	80736
#	92722
#	108774
#	126303
#	142452
#	157618
#	175494
#	190510
#	207564
#
# Disc length: 3008 seconds
#
# Revision: 1
# Processed by: cddbd v1.5.2PL0 Copyright (c) Steve Scherf et al.
# Submitted via: audiograbber 1.83.01
#
DISCID=bd0bbe0e
DTITLE=Various Artist - CDX Volume 569 (April 29, 2013)
DYEAR=2013
DGENRE=Country
TTITLE0=Joanna Smith - Girls Are Crazy [Single Edit]
TTITLE1=Hunter Hayes - I Want Crazy
TTITLE2=Lee Brice - Parking Lot Party
TTITLE3=Scotty McCreery - See You Tonight 
TTITLE4=Alexandra Lee - Dancin' Round The Fire 
TTITLE5=Rachele Lynae - Fishin' For Something
TTITLE6=Jason Plummer - Gone
TTITLE7=Mountain Rio - Honey Think I'll Take My Shirt Off and Dance [Radio Edit
TTITLE7=] 
TTITLE8=Thomas K. White - I Need A Honky Tonk
TTITLE9=Ali Dee - It Ain't
TTITLE10=Adrianna Freeman - Just A Girl
TTITLE11=Chantal Kuegle - Now That I Get To Drive
TTITLE12=Todd Stanford - Out Of The Picture
TTITLE13=Rachelle Lamb - Strong
EXTD=
EXTT0=
EXTT1=
EXTT2=
EXTT3=
EXTT4=
EXTT5=
EXTT6=
EXTT7=
EXTT8=
EXTT9=
EXTT10=
EXTT11=
EXTT12=
EXTT13=
PLAYORDER=
